<mxfile host="app.diagrams.net" modified="2021-12-10T01:14:12.674Z" agent="5.0 (Windows NT 10.0; Win64; x64) AppleWebKit/537.36 (KHTML, like Gecko) Chrome/96.0.4664.93 Safari/537.36" etag="wGF1ZOZ1b2-Xto9-Z0ZM" version="15.9.4" type="github">
  <diagram id="MxrtDzaIsBP__mq1xRaB" name="Page-1">
    <mxGraphModel dx="1422" dy="762" grid="1" gridSize="10" guides="1" tooltips="1" connect="1" arrows="1" fold="1" page="1" pageScale="1" pageWidth="827" pageHeight="1169" math="0" shadow="0">
      <root>
        <mxCell id="0" />
        <mxCell id="1" parent="0" />
        <mxCell id="2xli9w3K6ZbFmmfm4Tga-10" value="" style="rounded=0;whiteSpace=wrap;html=1;sketch=0;" vertex="1" parent="1">
          <mxGeometry x="230" y="160" width="390" height="90" as="geometry" />
        </mxCell>
        <mxCell id="2xli9w3K6ZbFmmfm4Tga-14" value="" style="rounded=1;whiteSpace=wrap;html=1;sketch=0;" vertex="1" parent="1">
          <mxGeometry x="230" y="440" width="376" height="60" as="geometry" />
        </mxCell>
        <mxCell id="2xli9w3K6ZbFmmfm4Tga-15" value="" style="endArrow=none;html=1;rounded=1;sketch=0;curved=0;entryX=0.25;entryY=1;entryDx=0;entryDy=0;exitX=0.25;exitY=0;exitDx=0;exitDy=0;" edge="1" parent="1" source="2xli9w3K6ZbFmmfm4Tga-10" target="2xli9w3K6ZbFmmfm4Tga-10">
          <mxGeometry width="50" height="50" relative="1" as="geometry">
            <mxPoint x="300" y="220" as="sourcePoint" />
            <mxPoint x="350" y="170" as="targetPoint" />
          </mxGeometry>
        </mxCell>
        <mxCell id="2xli9w3K6ZbFmmfm4Tga-16" value="" style="endArrow=none;html=1;rounded=1;sketch=0;curved=0;entryX=0.25;entryY=1;entryDx=0;entryDy=0;exitX=0.25;exitY=0;exitDx=0;exitDy=0;" edge="1" parent="1">
          <mxGeometry width="50" height="50" relative="1" as="geometry">
            <mxPoint x="410" y="160" as="sourcePoint" />
            <mxPoint x="410" y="250" as="targetPoint" />
          </mxGeometry>
        </mxCell>
        <mxCell id="2xli9w3K6ZbFmmfm4Tga-17" value="" style="endArrow=none;html=1;rounded=1;sketch=0;curved=0;entryX=0.25;entryY=1;entryDx=0;entryDy=0;exitX=0.25;exitY=0;exitDx=0;exitDy=0;" edge="1" parent="1">
          <mxGeometry width="50" height="50" relative="1" as="geometry">
            <mxPoint x="480" y="160" as="sourcePoint" />
            <mxPoint x="480" y="250" as="targetPoint" />
          </mxGeometry>
        </mxCell>
        <mxCell id="2xli9w3K6ZbFmmfm4Tga-18" value="" style="endArrow=none;html=1;rounded=1;sketch=0;curved=0;entryX=0.25;entryY=1;entryDx=0;entryDy=0;exitX=0.25;exitY=0;exitDx=0;exitDy=0;" edge="1" parent="1">
          <mxGeometry width="50" height="50" relative="1" as="geometry">
            <mxPoint x="560" y="160" as="sourcePoint" />
            <mxPoint x="560" y="250" as="targetPoint" />
          </mxGeometry>
        </mxCell>
      </root>
    </mxGraphModel>
  </diagram>
</mxfile>
